<?xml version="1.0" encoding="UTF-8" standalone="no"?>
<!-- Created with Inkscape (http://www.inkscape.org/) -->

<svg
   xmlns:dc="http://purl.org/dc/elements/1.1/"
   xmlns:cc="http://creativecommons.org/ns#"
   xmlns:rdf="http://www.w3.org/1999/02/22-rdf-syntax-ns#"
   xmlns:svg="http://www.w3.org/2000/svg"
   xmlns="http://www.w3.org/2000/svg"
   xmlns:sodipodi="http://sodipodi.sourceforge.net/DTD/sodipodi-0.dtd"
   xmlns:inkscape="http://www.inkscape.org/namespaces/inkscape"
   width="1200"
   height="1000"
   id="svg2"
   version="1.1"
   inkscape:version="0.47 r22583"
   sodipodi:docname="2.svg">
  <defs
     id="defs4">
    <inkscape:perspective
       sodipodi:type="inkscape:persp3d"
       inkscape:vp_x="0 : 526.18109 : 1"
       inkscape:vp_y="0 : 1000 : 0"
       inkscape:vp_z="744.09448 : 526.18109 : 1"
       inkscape:persp3d-origin="372.04724 : 350.78739 : 1"
       id="perspective10" />
    <inkscape:perspective
       id="perspective9756"
       inkscape:persp3d-origin="0.5 : 0.33333333 : 1"
       inkscape:vp_z="1 : 0.5 : 1"
       inkscape:vp_y="0 : 1000 : 0"
       inkscape:vp_x="0 : 0.5 : 1"
       sodipodi:type="inkscape:persp3d" />
  </defs>
  <sodipodi:namedview
     id="base"
     pagecolor="#ffffff"
     bordercolor="#666666"
     borderopacity="1.0"
     inkscape:pageopacity="0.0"
     inkscape:pageshadow="2"
     inkscape:zoom="0.49497475"
     inkscape:cx="599.33653"
     inkscape:cy="518.98985"
     inkscape:document-units="px"
     inkscape:current-layer="layer1"
     showgrid="false"
     showguides="true"
     inkscape:guide-bbox="true"
     inkscape:window-width="1366"
     inkscape:window-height="766"
     inkscape:window-x="0"
     inkscape:window-y="1"
     inkscape:window-maximized="1">
    <sodipodi:guide
       orientation="0,1"
       position="20,197.14286"
       id="guide2816" />
    <sodipodi:guide
       orientation="0,1"
       position="511.42857,548.57143"
       id="guide2818" />
    <sodipodi:guide
       orientation="1,0"
       position="1050.5586,721.24891"
       id="guide2820" />
    <sodipodi:guide
       orientation="0,1"
       position="628.57143,900"
       id="guide2822" />
    <sodipodi:guide
       orientation="1,0"
       position="563.66512,548.57143"
       id="guide2824" />
    <sodipodi:guide
       orientation="1,0"
       position="101.01525,816.20326"
       id="guide3672" />
    <sodipodi:guide
       orientation="0,1"
       position="432.34529,197.14286"
       id="guide9770" />
  </sodipodi:namedview>
  <metadata
     id="metadata7">
    <rdf:RDF>
      <cc:Work
         rdf:about="">
        <dc:format>image/svg+xml</dc:format>
        <dc:type
           rdf:resource="http://purl.org/dc/dcmitype/StillImage" />
        <dc:title></dc:title>
      </cc:Work>
    </rdf:RDF>
  </metadata>
  <g
     inkscape:label="Layer 1"
     inkscape:groupmode="layer"
     id="layer1"
     transform="translate(0,-52.36218)">
    <path
       style="font-size:medium;font-style:normal;font-variant:normal;font-weight:normal;font-stretch:normal;text-indent:0;text-align:start;text-decoration:none;line-height:normal;letter-spacing:normal;word-spacing:normal;text-transform:none;direction:ltr;block-progression:tb;writing-mode:lr-tb;text-anchor:start;color:#000000;fill:#000000;fill-opacity:1;stroke:none;stroke-width:90;marker:none;visibility:visible;display:inline;overflow:visible;enable-background:accumulate;font-family:Bitstream Vera Sans;-inkscape-font-specification:Bitstream Vera Sans"
       d="m 634.875,215.79968 c -21.8231,0.25851 -43.55169,2.68944 -64.40625,5.9375 -66.73458,10.39381 -125.4375,30.78125 -125.4375,30.78125 l 29.28125,85.09375 c 0,0 53.13839,-18.08139 110,-26.9375 28.4308,-4.42805 57.54901,-6.15684 78.09375,-3.46875 20.54474,2.68809 27.8409,8.47554 29.59375,11.34375 15.77882,25.81897 15.40243,64.35353 -2.75,115.09375 -18.15243,50.74022 -53.11783,108.89673 -91.9375,162.34375 -77.63934,106.89405 -168.84375,194.78125 -168.84375,194.78125 l 62.375,64.90625 c 0,0 95.76993,-91.80265 179.28125,-206.78125 41.75566,-57.4893 80.90734,-120.82496 103.84375,-184.9375 22.93641,-64.11254 30.61411,-133.76136 -5.1875,-192.34375 -21.77565,-35.63162 -60.09173,-49.12562 -94.71875,-53.65625 -12.98513,-1.69899 -26.09364,-2.31136 -39.1875,-2.15625 z"
       id="path9700" />
    <path
       style="font-size:medium;font-style:normal;font-variant:normal;font-weight:normal;font-stretch:normal;text-indent:0;text-align:start;text-decoration:none;line-height:normal;letter-spacing:normal;word-spacing:normal;text-transform:none;direction:ltr;block-progression:tb;writing-mode:lr-tb;text-anchor:start;color:#000000;fill:#000000;fill-opacity:1;stroke:none;stroke-width:90;marker:none;visibility:visible;display:inline;overflow:visible;enable-background:accumulate;font-family:Bitstream Vera Sans;-inkscape-font-specification:Bitstream Vera Sans"
       d="m 978.4935,215.34432 c -21.8231,0.25851 -43.5517,2.68944 -64.4063,5.9375 -66.73457,10.39381 -125.43749,30.78125 -125.43749,30.78125 l 29.28125,85.09375 c 0,0 53.13839,-18.08139 110.00004,-26.9375 28.4308,-4.42805 57.549,-6.15684 78.0937,-3.46875 20.5447,2.68809 27.8409,8.47554 29.5938,11.34375 15.7788,25.81897 15.4024,64.35353 -2.75,115.09375 C 1014.716,483.92829 979.7506,542.0848 940.931,595.53182 863.29162,702.42587 772.08721,790.31307 772.08721,790.31307 l 62.375,64.90625 c 0,0 95.76989,-91.80265 179.28129,-206.78125 41.7556,-57.4893 80.9073,-120.82496 103.8437,-184.9375 22.9364,-64.11254 30.6141,-133.76136 -5.1875,-192.34375 -21.7756,-35.63162 -60.0917,-49.12562 -94.7187,-53.65625 -12.9852,-1.69899 -26.0937,-2.31136 -39.1875,-2.15625 z"
       id="path9700-8" />
  </g>
</svg>
