<?xml version="1.0" encoding="UTF-8" standalone="no"?>
<!-- Created with Inkscape (http://www.inkscape.org/) -->

<svg
   xmlns:dc="http://purl.org/dc/elements/1.1/"
   xmlns:cc="http://creativecommons.org/ns#"
   xmlns:rdf="http://www.w3.org/1999/02/22-rdf-syntax-ns#"
   xmlns:svg="http://www.w3.org/2000/svg"
   xmlns="http://www.w3.org/2000/svg"
   xmlns:sodipodi="http://sodipodi.sourceforge.net/DTD/sodipodi-0.dtd"
   xmlns:inkscape="http://www.inkscape.org/namespaces/inkscape"
   width="1200"
   height="1000"
   id="svg2"
   version="1.1"
   inkscape:version="0.47 r22583"
   sodipodi:docname="d.svg">
  <defs
     id="defs4">
    <inkscape:perspective
       sodipodi:type="inkscape:persp3d"
       inkscape:vp_x="0 : 526.18109 : 1"
       inkscape:vp_y="0 : 1000 : 0"
       inkscape:vp_z="744.09448 : 526.18109 : 1"
       inkscape:persp3d-origin="372.04724 : 350.78739 : 1"
       id="perspective10" />
  </defs>
  <sodipodi:namedview
     id="base"
     pagecolor="#ffffff"
     bordercolor="#666666"
     borderopacity="1.0"
     inkscape:pageopacity="0.0"
     inkscape:pageshadow="2"
     inkscape:zoom="0.49497475"
     inkscape:cx="1045.0674"
     inkscape:cy="518.98985"
     inkscape:document-units="px"
     inkscape:current-layer="layer1"
     showgrid="false"
     showguides="true"
     inkscape:guide-bbox="true"
     inkscape:window-width="1366"
     inkscape:window-height="766"
     inkscape:window-x="0"
     inkscape:window-y="1"
     inkscape:window-maximized="1">
    <sodipodi:guide
       orientation="0,1"
       position="20,197.14286"
       id="guide2816" />
    <sodipodi:guide
       orientation="0,1"
       position="511.42857,548.57143"
       id="guide2818" />
    <sodipodi:guide
       orientation="1,0"
       position="1054.2857,365.71429"
       id="guide2820" />
    <sodipodi:guide
       orientation="0,1"
       position="628.57143,900"
       id="guide2822" />
    <sodipodi:guide
       orientation="1,0"
       position="565.71429,611.42857"
       id="guide2824" />
    <sodipodi:guide
       orientation="1,0"
       position="101.01525,816.20326"
       id="guide3672" />
  </sodipodi:namedview>
  <metadata
     id="metadata7">
    <rdf:RDF>
      <cc:Work
         rdf:about="">
        <dc:format>image/svg+xml</dc:format>
        <dc:type
           rdf:resource="http://purl.org/dc/dcmitype/StillImage" />
        <dc:title />
      </cc:Work>
    </rdf:RDF>
  </metadata>
  <g
     inkscape:label="Layer 1"
     inkscape:groupmode="layer"
     id="layer1"
     transform="translate(0,-52.36218)">
    <path
       style="font-size:medium;font-style:normal;font-variant:normal;font-weight:normal;font-stretch:normal;text-indent:0;text-align:start;text-decoration:none;line-height:normal;letter-spacing:normal;word-spacing:normal;text-transform:none;direction:ltr;block-progression:tb;writing-mode:lr-tb;text-anchor:start;color:#000000;fill:#000000;fill-opacity:1;stroke:none;stroke-width:90;marker:none;visibility:visible;display:inline;overflow:visible;enable-background:accumulate;font-family:Bitstream Vera Sans;-inkscape-font-specification:Bitstream Vera Sans"
       d="m 879.5625,119.89343 c -47.84356,0.40666 -105.94157,14.24644 -176,42.78125 l 33.96875,83.375 C 848.72019,200.7624 911.2055,210.39466 927.1562,219.95593 c 7.9754,4.78063 6.8138,5.69008 6.9063,7.8125 0.092,2.12242 -0.9597,8.50682 -9.3125,16.71875 -26.24996,25.80733 -42.97977,48.25518 -87.21573,99.58122 l -75.64055,87.76412 c 0,0 78.02488,10.87898 108.95003,32.84216 14.37306,10.20781 24.39581,26.18793 29.09375,42.78125 12.75137,45.03837 -2.3253,85.08779 -8.375,140.28125 -10.71911,97.7937 -251.93272,135.15912 -277.08236,143.24034 l 1.24712,64.2418 438.55844,0 0,-68.69037 c -401.89215,10.10152 -88.5843,8.85968 -73.2545,-128.97927 7.07573,-63.62188 28.4646,-110.95593 3.625,-180.40625 -12.4197,-34.72516 -32.6483,-68.19117 -66.6562,-89.125 -5.3483,-3.29219 1.0941,-1.94543 -4.7532,-4.39689 29.6872,-22.06262 49.1813,-49.99098 74.597,-74.97811 22.9619,-22.57477 37.5277,-52.62191 36.125,-84.8125 -1.4028,-32.19059 -21.2108,-63.48712 -50.5313,-81.0625 -25.6554,-15.37846 -56.6633,-23.19129 -93.875,-22.875 z"
       id="path3749"
       sodipodi:nodetypes="cccssszcaasccccssscsssc" />
  </g>
</svg>
