<?xml version="1.0" encoding="UTF-8" standalone="no"?>
<!-- Created with Inkscape (http://www.inkscape.org/) -->

<svg
   xmlns:dc="http://purl.org/dc/elements/1.1/"
   xmlns:cc="http://creativecommons.org/ns#"
   xmlns:rdf="http://www.w3.org/1999/02/22-rdf-syntax-ns#"
   xmlns:svg="http://www.w3.org/2000/svg"
   xmlns="http://www.w3.org/2000/svg"
   xmlns:sodipodi="http://sodipodi.sourceforge.net/DTD/sodipodi-0.dtd"
   xmlns:inkscape="http://www.inkscape.org/namespaces/inkscape"
   width="1200"
   height="1000"
   id="svg2"
   version="1.1"
   inkscape:version="0.47 r22583"
   sodipodi:docname="m.svg">
  <defs
     id="defs4">
    <inkscape:perspective
       sodipodi:type="inkscape:persp3d"
       inkscape:vp_x="0 : 526.18109 : 1"
       inkscape:vp_y="0 : 1000 : 0"
       inkscape:vp_z="744.09448 : 526.18109 : 1"
       inkscape:persp3d-origin="372.04724 : 350.78739 : 1"
       id="perspective10" />
    <inkscape:perspective
       id="perspective5911"
       inkscape:persp3d-origin="0.5 : 0.33333333 : 1"
       inkscape:vp_z="1 : 0.5 : 1"
       inkscape:vp_y="0 : 1000 : 0"
       inkscape:vp_x="0 : 0.5 : 1"
       sodipodi:type="inkscape:persp3d" />
  </defs>
  <sodipodi:namedview
     id="base"
     pagecolor="#ffffff"
     bordercolor="#666666"
     borderopacity="1.0"
     inkscape:pageopacity="0.0"
     inkscape:pageshadow="2"
     inkscape:zoom="0.49497475"
     inkscape:cx="325.83879"
     inkscape:cy="517.9797"
     inkscape:document-units="px"
     inkscape:current-layer="layer1"
     showgrid="false"
     showguides="true"
     inkscape:guide-bbox="true"
     inkscape:window-width="1366"
     inkscape:window-height="766"
     inkscape:window-x="0"
     inkscape:window-y="1"
     inkscape:window-maximized="1">
    <sodipodi:guide
       orientation="0,1"
       position="20,197.14286"
       id="guide2816" />
    <sodipodi:guide
       orientation="0,1"
       position="511.42857,548.57143"
       id="guide2818" />
    <sodipodi:guide
       orientation="1,0"
       position="1054.2857,365.71429"
       id="guide2820" />
    <sodipodi:guide
       orientation="0,1"
       position="628.57143,900"
       id="guide2822" />
    <sodipodi:guide
       orientation="1,0"
       position="565.71429,611.42857"
       id="guide2824" />
    <sodipodi:guide
       orientation="1,0"
       position="101.01525,816.20326"
       id="guide3672" />
    <sodipodi:guide
       orientation="1,0"
       position="765.69562,548.57143"
       id="guide5969" />
  </sodipodi:namedview>
  <metadata
     id="metadata7">
    <rdf:RDF>
      <cc:Work
         rdf:about="">
        <dc:format>image/svg+xml</dc:format>
        <dc:type
           rdf:resource="http://purl.org/dc/dcmitype/StillImage" />
        <dc:title />
      </cc:Work>
    </rdf:RDF>
  </metadata>
  <g
     inkscape:label="Layer 1"
     inkscape:groupmode="layer"
     id="layer1"
     transform="translate(0,-52.36218)">
    <path
       style="font-size:medium;font-style:normal;font-variant:normal;font-weight:normal;font-stretch:normal;text-indent:0;text-align:start;text-decoration:none;line-height:normal;letter-spacing:normal;word-spacing:normal;text-transform:none;direction:ltr;block-progression:tb;writing-mode:lr-tb;text-anchor:start;color:#000000;fill:#000000;fill-opacity:1;stroke:none;stroke-width:90;marker:none;visibility:visible;display:inline;overflow:visible;enable-background:accumulate;font-family:Bitstream Vera Sans;-inkscape-font-specification:Bitstream Vera Sans"
       d="m 239.875,152.36218 0,207.59375 c -54.81852,1.56463 -105.98127,5.34099 -140.59375,6.6875 l 3.46875,89.9375 c 37.02299,-1.44029 86.21009,-5.03167 137.125,-6.59375 l 0,68.75 c -18.25251,7.43721 -42.63637,18.24346 -67.4375,31.78125 -24.88779,13.58509 -50.5788,29.8493 -72.5,50.6875 -21.921196,20.8382 -42.543574,48.13915 -43.90625,84.75 -2.322839,62.40744 34.300065,114.72073 79.21875,151.9375 44.91869,37.21677 100.61446,62.3125 157.6875,62.3125 59.32296,0 131.50462,-12.02797 194.4375,-40.46875 31.46644,-14.22039 60.85077,-32.65097 83.96875,-58.3125 23.11798,-25.66153 39.375,-60.24366 39.375,-98.5625 0,-47.50608 0.52226,-101.26111 -14.1875,-155.875 -14.70976,-54.61389 -46.89066,-109.90621 -105.75,-151.875 l -2.71875,-1.9375 -2.96875,-1.53125 C 440.16321,368.75901 385.98176,361.92468 329.875,359.98718 l 0,-207.625 -90,0 z m 90,298.21875 c 47.47529,2.76289 89.3313,9.76782 111.625,20.09375 39.96943,29.45736 57.83856,61.52761 68.125,99.71875 10.55127,39.1744 11.09375,84.96267 11.09375,132.46875 0,14.59631 -4.69223,25.48308 -16.25,38.3125 -11.55777,12.82942 -30.60508,25.88795 -54.15625,36.53125 -47.10234,21.2866 -111.29871,32.5 -157.375,32.5 -27.85834,0 -69.67853,-16.23828 -100.28125,-41.59375 -30.60272,-25.35547 -47.52367,-56.84732 -46.6875,-79.3125 0.0618,-1.66047 3.1514,-10.69088 15.96875,-22.875 12.81735,-12.18412 32.90696,-25.59723 53.625,-36.90625 41.43607,-22.61804 83.75,-37.09375 83.75,-37.09375 l 30.5625,-10.375 0,-32.25 0,-99.21875 z"
       id="path6580" />
  </g>
</svg>
