<?xml version="1.0" encoding="UTF-8" standalone="no"?>
<!-- Created with Inkscape (http://www.inkscape.org/) -->

<svg
   xmlns:dc="http://purl.org/dc/elements/1.1/"
   xmlns:cc="http://creativecommons.org/ns#"
   xmlns:rdf="http://www.w3.org/1999/02/22-rdf-syntax-ns#"
   xmlns:svg="http://www.w3.org/2000/svg"
   xmlns="http://www.w3.org/2000/svg"
   xmlns:sodipodi="http://sodipodi.sourceforge.net/DTD/sodipodi-0.dtd"
   xmlns:inkscape="http://www.inkscape.org/namespaces/inkscape"
   width="1200"
   height="1000"
   id="svg2"
   version="1.1"
   inkscape:version="0.47 r22583"
   sodipodi:docname="s.svg">
  <defs
     id="defs4">
    <inkscape:perspective
       sodipodi:type="inkscape:persp3d"
       inkscape:vp_x="0 : 526.18109 : 1"
       inkscape:vp_y="0 : 1000 : 0"
       inkscape:vp_z="744.09448 : 526.18109 : 1"
       inkscape:persp3d-origin="372.04724 : 350.78739 : 1"
       id="perspective10" />
  </defs>
  <sodipodi:namedview
     id="base"
     pagecolor="#ffffff"
     bordercolor="#666666"
     borderopacity="1.0"
     inkscape:pageopacity="0.0"
     inkscape:pageshadow="2"
     inkscape:zoom="0.49497475"
     inkscape:cx="599.33653"
     inkscape:cy="518.98985"
     inkscape:document-units="px"
     inkscape:current-layer="layer1"
     showgrid="false"
     showguides="true"
     inkscape:guide-bbox="true"
     inkscape:window-width="1366"
     inkscape:window-height="766"
     inkscape:window-x="0"
     inkscape:window-y="1"
     inkscape:window-maximized="1">
    <sodipodi:guide
       orientation="0,1"
       position="20,197.14286"
       id="guide2816" />
    <sodipodi:guide
       orientation="0,1"
       position="511.42857,548.57143"
       id="guide2818" />
    <sodipodi:guide
       orientation="1,0"
       position="1050.5586,721.24891"
       id="guide2820" />
    <sodipodi:guide
       orientation="0,1"
       position="628.57143,900"
       id="guide2822" />
    <sodipodi:guide
       orientation="1,0"
       position="563.66512,548.57143"
       id="guide2824" />
    <sodipodi:guide
       orientation="1,0"
       position="101.01525,816.20326"
       id="guide3672" />
  </sodipodi:namedview>
  <metadata
     id="metadata7">
    <rdf:RDF>
      <cc:Work
         rdf:about="">
        <dc:format>image/svg+xml</dc:format>
        <dc:type
           rdf:resource="http://purl.org/dc/dcmitype/StillImage" />
        <dc:title />
      </cc:Work>
    </rdf:RDF>
  </metadata>
  <g
     inkscape:label="Layer 1"
     inkscape:groupmode="layer"
     id="layer1"
     transform="translate(0,-52.36218)">
    <path
       style="font-size:medium;font-style:normal;font-variant:normal;font-weight:normal;font-stretch:normal;text-indent:0;text-align:start;text-decoration:none;line-height:normal;letter-spacing:normal;word-spacing:normal;text-transform:none;direction:ltr;block-progression:tb;writing-mode:lr-tb;text-anchor:start;color:#000000;fill:#000000;fill-opacity:1;stroke:none;stroke-width:90;marker:none;visibility:visible;display:inline;overflow:visible;enable-background:accumulate;font-family:Bitstream Vera Sans;-inkscape-font-specification:Bitstream Vera Sans"
       d="m 690.57137,146.66245 c -11.76518,0.12925 -23.25466,1.75544 -34.625,3.875 -45.48134,8.47825 -91.53765,28.31693 -127.28125,43.40625 l 35,82.90625 c 35.32161,-14.91118 78.74406,-32.21322 108.78125,-37.8125 11.24431,-2.09607 20.26006,-2.09079 24.8125,-1.71875 11.39437,51.29254 11.27447,335.53233 -149.28125,561.21558 l 73.34375,40.03442 c 96.88046,-136.17887 148.82215,-367.65902 164.0625,-458.8125 19.14685,-4.98136 43.94241,-10.73096 70.21875,-14.59375 27.56844,-4.05274 56.09695,-5.66065 77.25,-3.125 21.15305,2.53565 31.56859,8.98608 34.25,12.46875 7.60401,9.87625 12.10437,30.64561 7.75,61.71875 -4.35437,31.07314 -16.92756,69.12464 -32.21875,104.84375 -30.58237,71.43822 -70.5,132.8125 -70.5,132.8125 l 75.34375,49.21875 c 0,0 43.51022,-66.35133 77.87498,-146.625 17.1824,-40.13683 32.4843,-83.92939 38.625,-127.75 6.1407,-43.82061 3.7938,-90.99645 -25.5625,-129.125 -24.4337,-31.73498 -60.9414,-42.86984 -94.87498,-46.9375 -33.93358,-4.06766 -68.7084,-1.28292 -101.03125,3.46875 -17.64057,2.59328 -34.45577,5.85202 -49.84375,9.25 -0.67686,-29.89561 -4.24113,-54.44749 -8.65625,-72.625 -6.96757,-28.6862 -32.13768,-53.23173 -57.125,-60.96875 -12.49366,-3.86851 -24.54732,-5.25425 -36.3125,-5.125 z"
       id="path7236"
       sodipodi:nodetypes="csccsccccsssssccssssscssc" />
    <path
       style="font-size:medium;font-style:normal;font-variant:normal;font-weight:normal;font-stretch:normal;text-indent:0;text-align:start;text-decoration:none;line-height:normal;letter-spacing:normal;word-spacing:normal;text-transform:none;direction:ltr;block-progression:tb;writing-mode:lr-tb;text-anchor:start;color:#000000;fill:#000000;fill-opacity:1;stroke:none;stroke-width:90;marker:none;visibility:visible;display:inline;overflow:visible;enable-background:accumulate;font-family:Bitstream Vera Sans;-inkscape-font-specification:Bitstream Vera Sans"
       d="m 570.84375,764.875 -74.3125,90 649.78125,2.03125 0.3125,-90 -575.78125,-2.03125 z"
       id="path9159"
       sodipodi:nodetypes="ccccc" />
  </g>
</svg>
