<?xml version="1.0" encoding="UTF-8" standalone="no"?>
<!-- Created with Inkscape (http://www.inkscape.org/) -->

<svg
   xmlns:dc="http://purl.org/dc/elements/1.1/"
   xmlns:cc="http://creativecommons.org/ns#"
   xmlns:rdf="http://www.w3.org/1999/02/22-rdf-syntax-ns#"
   xmlns:svg="http://www.w3.org/2000/svg"
   xmlns="http://www.w3.org/2000/svg"
   xmlns:sodipodi="http://sodipodi.sourceforge.net/DTD/sodipodi-0.dtd"
   xmlns:inkscape="http://www.inkscape.org/namespaces/inkscape"
   width="1200"
   height="1000"
   id="svg2"
   version="1.1"
   inkscape:version="0.47 r22583"
   sodipodi:docname="taw.svg">
  <defs
     id="defs4">
    <inkscape:perspective
       sodipodi:type="inkscape:persp3d"
       inkscape:vp_x="0 : 526.18109 : 1"
       inkscape:vp_y="0 : 1000 : 0"
       inkscape:vp_z="744.09448 : 526.18109 : 1"
       inkscape:persp3d-origin="372.04724 : 350.78739 : 1"
       id="perspective10" />
  </defs>
  <sodipodi:namedview
     id="base"
     pagecolor="#ffffff"
     bordercolor="#666666"
     borderopacity="1.0"
     inkscape:pageopacity="0.0"
     inkscape:pageshadow="2"
     inkscape:zoom="0.49497475"
     inkscape:cx="599.33653"
     inkscape:cy="518.98985"
     inkscape:document-units="px"
     inkscape:current-layer="layer1"
     showgrid="false"
     showguides="true"
     inkscape:guide-bbox="true"
     inkscape:window-width="1366"
     inkscape:window-height="766"
     inkscape:window-x="0"
     inkscape:window-y="1"
     inkscape:window-maximized="1">
    <sodipodi:guide
       orientation="0,1"
       position="20,197.14286"
       id="guide2816" />
    <sodipodi:guide
       orientation="0,1"
       position="511.42857,548.57143"
       id="guide2818" />
    <sodipodi:guide
       orientation="1,0"
       position="1050.5586,721.24891"
       id="guide2820" />
    <sodipodi:guide
       orientation="0,1"
       position="628.57143,900"
       id="guide2822" />
    <sodipodi:guide
       orientation="1,0"
       position="563.66512,548.57143"
       id="guide2824" />
    <sodipodi:guide
       orientation="1,0"
       position="101.01525,816.20326"
       id="guide3672" />
  </sodipodi:namedview>
  <metadata
     id="metadata7">
    <rdf:RDF>
      <cc:Work
         rdf:about="">
        <dc:format>image/svg+xml</dc:format>
        <dc:type
           rdf:resource="http://purl.org/dc/dcmitype/StillImage" />
        <dc:title></dc:title>
      </cc:Work>
    </rdf:RDF>
  </metadata>
  <g
     inkscape:label="Layer 1"
     inkscape:groupmode="layer"
     id="layer1"
     transform="translate(0,-52.36218)">
    <path
       style="font-size:medium;font-style:normal;font-variant:normal;font-weight:normal;font-stretch:normal;text-indent:0;text-align:start;text-decoration:none;line-height:normal;letter-spacing:normal;word-spacing:normal;text-transform:none;direction:ltr;block-progression:tb;writing-mode:lr-tb;text-anchor:start;color:#000000;fill:#000000;fill-opacity:1;stroke:none;stroke-width:90;marker:none;visibility:visible;display:inline;overflow:visible;enable-background:accumulate;font-family:Bitstream Vera Sans;-inkscape-font-specification:Bitstream Vera Sans"
       d="M 690.5625 94.3125 C 678.79732 94.44175 667.30784 96.06794 655.9375 98.1875 C 610.45616 106.66575 564.39985 126.50443 528.65625 141.59375 L 563.65625 224.5 C 598.97786 209.58882 642.40031 192.28678 672.4375 186.6875 C 683.68181 184.59143 692.69756 184.59671 697.25 184.96875 C 708.11026 233.85695 708.50573 494.36727 569.5 714.09375 C 569.4676 714.14496 569.43866 714.1988 569.40625 714.25 L 496.53125 802.5 L 1146.3125 804.53125 L 1146.625 714.53125 L 665.25 712.84375 C 734.19292 578.12635 772.62541 403.66233 785.375 327.40625 C 804.52185 322.42489 829.31741 316.67529 855.59375 312.8125 C 883.16219 308.75976 911.6907 307.15185 932.84375 309.6875 C 953.9968 312.22315 964.41234 318.67358 967.09375 322.15625 C 974.69776 332.0325 979.19812 352.80186 974.84375 383.875 C 970.48938 414.94814 957.91619 452.99964 942.625 488.71875 C 912.04263 560.15697 872.125 621.53125 872.125 621.53125 L 947.46875 670.75 C 947.46875 670.75 990.97884 604.39867 1025.3438 524.125 C 1042.5258 483.98817 1057.8278 440.19561 1063.9688 396.375 C 1070.1091 352.55439 1067.7628 305.37855 1038.4062 267.25 C 1013.9728 235.51502 977.46483 224.38016 943.53125 220.3125 C 909.59767 216.24484 874.82285 219.02958 842.5 223.78125 C 824.85943 226.37453 808.04423 229.63327 792.65625 233.03125 C 791.97939 203.13564 788.41512 178.58376 784 160.40625 C 777.03243 131.72005 751.86232 107.17452 726.875 99.4375 C 714.38134 95.56899 702.32768 94.18325 690.5625 94.3125 z "
       transform="translate(0,52.36218)"
       id="path7236" />
  </g>
</svg>
