<?xml version="1.0" encoding="UTF-8" standalone="no"?>
<!-- Created with Inkscape (http://www.inkscape.org/) -->

<svg
   xmlns:dc="http://purl.org/dc/elements/1.1/"
   xmlns:cc="http://creativecommons.org/ns#"
   xmlns:rdf="http://www.w3.org/1999/02/22-rdf-syntax-ns#"
   xmlns:svg="http://www.w3.org/2000/svg"
   xmlns="http://www.w3.org/2000/svg"
   xmlns:sodipodi="http://sodipodi.sourceforge.net/DTD/sodipodi-0.dtd"
   xmlns:inkscape="http://www.inkscape.org/namespaces/inkscape"
   width="1200"
   height="1000"
   id="svg2"
   version="1.1"
   inkscape:version="0.47 r22583"
   sodipodi:docname="v.svg">
  <defs
     id="defs4">
    <inkscape:perspective
       sodipodi:type="inkscape:persp3d"
       inkscape:vp_x="0 : 526.18109 : 1"
       inkscape:vp_y="0 : 1000 : 0"
       inkscape:vp_z="744.09448 : 526.18109 : 1"
       inkscape:persp3d-origin="372.04724 : 350.78739 : 1"
       id="perspective10" />
  </defs>
  <sodipodi:namedview
     id="base"
     pagecolor="#ffffff"
     bordercolor="#666666"
     borderopacity="1.0"
     inkscape:pageopacity="0.0"
     inkscape:pageshadow="2"
     inkscape:zoom="0.49497475"
     inkscape:cx="860.57509"
     inkscape:cy="474.6896"
     inkscape:document-units="px"
     inkscape:current-layer="layer1"
     showgrid="false"
     showguides="true"
     inkscape:guide-bbox="true"
     inkscape:window-width="1366"
     inkscape:window-height="766"
     inkscape:window-x="0"
     inkscape:window-y="1"
     inkscape:window-maximized="1">
    <sodipodi:guide
       orientation="0,1"
       position="20,197.14286"
       id="guide2816" />
    <sodipodi:guide
       orientation="0,1"
       position="511.42857,548.57143"
       id="guide2818" />
    <sodipodi:guide
       orientation="1,0"
       position="1054.2857,365.71429"
       id="guide2820" />
    <sodipodi:guide
       orientation="0,1"
       position="628.57143,900"
       id="guide2822" />
    <sodipodi:guide
       orientation="1,0"
       position="565.71429,611.42857"
       id="guide2824" />
    <sodipodi:guide
       orientation="1,0"
       position="101.01525,816.20326"
       id="guide3672" />
  </sodipodi:namedview>
  <metadata
     id="metadata7">
    <rdf:RDF>
      <cc:Work
         rdf:about="">
        <dc:format>image/svg+xml</dc:format>
        <dc:type
           rdf:resource="http://purl.org/dc/dcmitype/StillImage" />
        <dc:title></dc:title>
      </cc:Work>
    </rdf:RDF>
  </metadata>
  <g
     inkscape:label="Layer 1"
     inkscape:groupmode="layer"
     id="layer1"
     transform="translate(0,-52.36218)">
    <path
       style="font-size:medium;font-style:normal;font-variant:normal;font-weight:normal;font-stretch:normal;text-indent:0;text-align:start;text-decoration:none;line-height:normal;letter-spacing:normal;word-spacing:normal;text-transform:none;direction:ltr;block-progression:tb;writing-mode:lr-tb;text-anchor:start;color:#000000;fill:#000000;fill-opacity:1;stroke:none;stroke-width:90;marker:none;visibility:visible;display:inline;overflow:visible;enable-background:accumulate;font-family:Bitstream Vera Sans;-inkscape-font-specification:Bitstream Vera Sans"
       d="m 925.25,338.28125 c 0,0 -32.70056,15.94767 -66.125,42.375 C 825.70056,407.08358 784.0281,445.37875 783,505 c -0.65322,37.88163 25.39227,65.13175 48.40625,80.84375 23.01398,15.712 48.02082,26.07635 70.8125,36.15625 22.79168,10.0799 43.36875,20.03619 53.25,27.34375 0.70929,0.52454 0.91583,0.80282 1.5,1.28125 -5.8225,5.29406 -16.1895,12.69978 -29.40625,20.28125 -27.25467,15.63398 -66.00027,32.34647 -104.6875,46.875 -77.37445,29.05707 -154.375,50 -154.375,50 l 23.5625,86.875 c 0,0 80.0179,-21.64204 162.4375,-52.59375 41.2098,-15.47586 83.0926,-33.12834 117.84375,-53.0625 17.37557,-9.96708 33.02895,-20.38575 46.62505,-33.0625 13.596,-12.67675 27.0347,-28.21786 30.9062,-52.5 2.9721,-18.64102 -1.4778,-38.57177 -9.9688,-53.25 -8.4909,-14.67823 -19.6718,-24.8874 -30.9374,-33.21875 C 986.43752,560.30604 961.72808,549.90512 938.625,539.6875 915.52192,529.46988 894.03433,519.60935 882.15625,511.5 c -5.83346,-3.98259 -8.00699,-5.9493 -8.84375,-6.625 1.6396,-11.17623 17.93755,-34.86506 41.625,-53.59375 C 939.78272,431.63716 965.03125,419 965.03125,419 L 925.25,338.28125 z"
       id="path3996" />
  </g>
</svg>
